<svg width="293" height="39" viewBox="0 0 293 39" fill="none" xmlns="http://www.w3.org/2000/svg"><path d="M10.928 1.672c3.68 0 6.608.752 8.784 2.256 2.176 1.472 3.264 3.68 3.264 6.624 0 2.176-.544 4-1.632 5.472-1.056 1.44-2.512 2.528-4.368 3.264-1.824.704-3.92 1.056-6.288 1.056L9.584 16.6c2.912 0 5.488.4 7.728 1.2 2.272.8 4.064 1.952 5.376 3.456 1.312 1.472 1.968 3.248 1.968 5.328 0 1.92-.352 3.552-1.056 4.896a8.732 8.732 0 0 1-2.784 3.216c-1.152.8-2.464 1.392-3.936 1.776a19.54 19.54 0 0 1-4.56.528H.56V1.672h10.368Zm.816 14.448c1.376 0 2.384-.416 3.024-1.248a4.386 4.386 0 0 0 1.008-2.832c0-1.216-.416-2.128-1.248-2.736-.8-.608-1.888-.912-3.264-.912H7.52v7.728h4.224Zm.24 14.4c1.024 0 1.952-.128 2.784-.384.832-.288 1.488-.72 1.968-1.296.48-.608.72-1.36.72-2.256 0-1.024-.288-1.792-.864-2.304-.576-.544-1.328-.912-2.256-1.104a11.638 11.638 0 0 0-2.832-.336H7.52v7.68h4.464ZM61.35 1.672V37h-6.96V22.648H38.598V37h-6.96V1.672h6.96v14.256H54.39V1.672h6.96Zm19.805 0c2.208 0 4.176.288 5.904.864 1.728.544 3.168 1.344 4.32 2.4a9.847 9.847 0 0 1 2.688 3.744c.608 1.44.912 3.072.912 4.896 0 1.44-.224 2.88-.672 4.32a10.698 10.698 0 0 1-2.112 3.936c-.96 1.184-2.24 2.144-3.84 2.88-1.6.704-3.584 1.056-5.952 1.056H77.41V37h-6.96V1.672h10.704Zm1.2 17.376c1.056 0 1.936-.176 2.64-.528.704-.352 1.248-.8 1.632-1.344.416-.544.704-1.104.864-1.68.192-.608.288-1.168.288-1.68 0-.384-.064-.864-.192-1.44a5.282 5.282 0 0 0-.672-1.824c-.352-.608-.896-1.12-1.632-1.536-.704-.416-1.664-.624-2.88-.624H77.41v10.656h4.944Zm6.528 4.32L97.619 37h-8.112l-8.928-13.44 8.304-.192Zm11.095-3.984c0-2.432.464-4.736 1.392-6.912a18.53 18.53 0 0 1 3.84-5.76 18.404 18.404 0 0 1 5.76-3.984c2.176-.96 4.512-1.44 7.008-1.44 2.464 0 4.784.48 6.96 1.44a18.404 18.404 0 0 1 5.76 3.984 17.75 17.75 0 0 1 3.936 5.76c.96 2.176 1.44 4.48 1.44 6.912 0 2.496-.48 4.832-1.44 7.008a17.75 17.75 0 0 1-3.936 5.76 18.53 18.53 0 0 1-5.76 3.84c-2.176.928-4.496 1.392-6.96 1.392-2.496 0-4.832-.464-7.008-1.392a18.53 18.53 0 0 1-5.76-3.84 18.53 18.53 0 0 1-3.84-5.76c-.928-2.176-1.392-4.512-1.392-7.008Zm7.2 0c0 1.568.272 3.04.816 4.416a12.282 12.282 0 0 0 2.352 3.6 11.394 11.394 0 0 0 3.504 2.4c1.344.576 2.8.864 4.368.864 1.504 0 2.896-.288 4.176-.864a10.285 10.285 0 0 0 3.408-2.4 11.998 11.998 0 0 0 2.256-3.6c.544-1.376.816-2.848.816-4.416 0-1.6-.288-3.088-.864-4.464a10.844 10.844 0 0 0-2.304-3.6 9.972 9.972 0 0 0-3.408-2.448c-1.312-.576-2.736-.864-4.272-.864s-2.96.288-4.272.864a10.476 10.476 0 0 0-3.456 2.448 10.844 10.844 0 0 0-2.304 3.6c-.544 1.376-.816 2.864-.816 4.464ZM143.013 37V.232h.048l19.632 27.84-2.976-.672L179.301.232h.096V37h-6.96V15.928l.432 3.6-11.952 16.992h-.096l-12.288-16.992 1.2-3.312V37h-6.72Zm41.532 0L200.481.28h.384L216.801 37h-8.064l-10.176-25.824 5.04-3.456L191.409 37h-6.864Zm10.896-12.768h10.608l2.448 5.856h-15.216l2.16-5.856Zm21.912-4.848c0-2.432.464-4.736 1.392-6.912a18.53 18.53 0 0 1 3.84-5.76 18.404 18.404 0 0 1 5.76-3.984c2.176-.96 4.512-1.44 7.008-1.44 2.464 0 4.784.48 6.96 1.44a18.404 18.404 0 0 1 5.76 3.984 17.75 17.75 0 0 1 3.936 5.76c.96 2.176 1.44 4.48 1.44 6.912 0 2.496-.48 4.832-1.44 7.008a17.75 17.75 0 0 1-3.936 5.76 18.53 18.53 0 0 1-5.76 3.84c-2.176.928-4.496 1.392-6.96 1.392-2.496 0-4.832-.464-7.008-1.392a18.53 18.53 0 0 1-5.76-3.84 18.53 18.53 0 0 1-3.84-5.76c-.928-2.176-1.392-4.512-1.392-7.008Zm7.2 0c0 1.568.272 3.04.816 4.416a12.282 12.282 0 0 0 2.352 3.6 11.394 11.394 0 0 0 3.504 2.4c1.344.576 2.8.864 4.368.864 1.504 0 2.896-.288 4.176-.864a10.285 10.285 0 0 0 3.408-2.4 11.998 11.998 0 0 0 2.256-3.6c.544-1.376.816-2.848.816-4.416 0-1.6-.288-3.088-.864-4.464a10.844 10.844 0 0 0-2.304-3.6 9.972 9.972 0 0 0-3.408-2.448c-1.312-.576-2.736-.864-4.272-.864s-2.96.288-4.272.864a10.476 10.476 0 0 0-3.456 2.448 10.844 10.844 0 0 0-2.304 3.6c-.544 1.376-.816 2.864-.816 4.464ZM292.02 38.44l-26.784-24.192L267.3 15.4l.144 21.6h-7.056V.28h.288l26.208 24.096-1.536-.672-.144-22.032h7.008V38.44h-.192Z" fill="#fff"/></svg>