<?xml version="1.0" encoding="utf-8"?>
<svg xmlns="http://www.w3.org/2000/svg">
<symbol id="check-circle" viewBox="0 0 64 64"><path d="M32 1C14.88 1 1 14.88 1 32c0 17.12 13.88 31 31 31 17.12 0 31-13.88 31-31C63 14.88 49.12 1 32 1Zm0 6c13.816 0 25 11.181 25 25 0 13.816-11.181 25-25 25C18.183 57 7 45.819 7 32 7 18.183 18.181 7 32 7Zm17.526 16.283-2.818-2.84a1.5 1.5 0 0 0-2.12-.008l-17.67 17.527-7.474-7.535a1.5 1.5 0 0 0-2.121-.008l-2.84 2.817a1.5 1.5 0 0 0-.008 2.121l11.347 11.44a1.5 1.5 0 0 0 2.122.008l21.573-21.4a1.5 1.5 0 0 0 .008-2.122Z"/>
</symbol>
<symbol id="chevron-down" viewBox="0 0 56 64"><path d="M25.879 47.684 1.586 23.392a3 3 0 0 1 0-4.243l2.833-2.834a3 3 0 0 1 4.238-.005L28 35.564 47.343 16.31a3 3 0 0 1 4.238.006l2.833 2.833a3 3 0 0 1 0 4.242L30.121 47.686a3 3 0 0 1-4.242 0Z"/>
</symbol>
<symbol id="facebook" viewBox="0 0 40 64"><path d="m34.892 36 1.778-11.582H25.556V16.9c0-3.168 1.553-6.257 6.53-6.257h5.053V.783S32.554 0 28.17 0c-9.153 0-15.135 5.548-15.135 15.59v8.828H2.861V36h10.174v28h12.521V36h9.336Z"/>
</symbol>
<symbol id="linkedin" viewBox="0 0 56 64"><path d="M52 4H3.987C1.787 4 0 5.813 0 8.037v47.925C0 58.188 1.788 60 3.987 60H52c2.2 0 4-1.813 4-4.038V8.038C56 5.813 54.2 4 52 4ZM16.925 52h-8.3V25.275h8.313V52h-.013Zm-4.15-30.375a4.815 4.815 0 0 1-4.813-4.813c0-2.65 2.15-4.812 4.813-4.812a4.823 4.823 0 0 1 4.812 4.813 4.807 4.807 0 0 1-4.812 4.812ZM48.038 52h-8.3V39c0-3.1-.063-7.087-4.313-7.087-4.325 0-4.987 3.375-4.987 6.862V52h-8.3V25.275H30.1v3.65h.112c1.113-2.1 3.826-4.313 7.863-4.313 8.4 0 9.962 5.538 9.962 12.738V52Z"/>
</symbol>
<symbol id="logo" viewBox="0 0 293 39"><path d="M10.928 1.672c3.68 0 6.608.752 8.784 2.256 2.176 1.472 3.264 3.68 3.264 6.624 0 2.176-.544 4-1.632 5.472-1.056 1.44-2.512 2.528-4.368 3.264-1.824.704-3.92 1.056-6.288 1.056L9.584 16.6c2.912 0 5.488.4 7.728 1.2 2.272.8 4.064 1.952 5.376 3.456 1.312 1.472 1.968 3.248 1.968 5.328 0 1.92-.352 3.552-1.056 4.896a8.732 8.732 0 0 1-2.784 3.216c-1.152.8-2.464 1.392-3.936 1.776a19.54 19.54 0 0 1-4.56.528H.56V1.672h10.368Zm.816 14.448c1.376 0 2.384-.416 3.024-1.248a4.386 4.386 0 0 0 1.008-2.832c0-1.216-.416-2.128-1.248-2.736-.8-.608-1.888-.912-3.264-.912H7.52v7.728h4.224Zm.24 14.4c1.024 0 1.952-.128 2.784-.384.832-.288 1.488-.72 1.968-1.296.48-.608.72-1.36.72-2.256 0-1.024-.288-1.792-.864-2.304-.576-.544-1.328-.912-2.256-1.104a11.638 11.638 0 0 0-2.832-.336H7.52v7.68h4.464ZM61.35 1.672V37h-6.96V22.648H38.598V37h-6.96V1.672h6.96v14.256H54.39V1.672h6.96Zm19.805 0c2.208 0 4.176.288 5.904.864 1.728.544 3.168 1.344 4.32 2.4a9.847 9.847 0 0 1 2.688 3.744c.608 1.44.912 3.072.912 4.896 0 1.44-.224 2.88-.672 4.32a10.698 10.698 0 0 1-2.112 3.936c-.96 1.184-2.24 2.144-3.84 2.88-1.6.704-3.584 1.056-5.952 1.056H77.41V37h-6.96V1.672h10.704Zm1.2 17.376c1.056 0 1.936-.176 2.64-.528.704-.352 1.248-.8 1.632-1.344.416-.544.704-1.104.864-1.68.192-.608.288-1.168.288-1.68 0-.384-.064-.864-.192-1.44a5.282 5.282 0 0 0-.672-1.824c-.352-.608-.896-1.12-1.632-1.536-.704-.416-1.664-.624-2.88-.624H77.41v10.656h4.944Zm6.528 4.32L97.619 37h-8.112l-8.928-13.44 8.304-.192Zm11.095-3.984c0-2.432.464-4.736 1.392-6.912a18.53 18.53 0 0 1 3.84-5.76 18.404 18.404 0 0 1 5.76-3.984c2.176-.96 4.512-1.44 7.008-1.44 2.464 0 4.784.48 6.96 1.44a18.404 18.404 0 0 1 5.76 3.984 17.75 17.75 0 0 1 3.936 5.76c.96 2.176 1.44 4.48 1.44 6.912 0 2.496-.48 4.832-1.44 7.008a17.75 17.75 0 0 1-3.936 5.76 18.53 18.53 0 0 1-5.76 3.84c-2.176.928-4.496 1.392-6.96 1.392-2.496 0-4.832-.464-7.008-1.392a18.53 18.53 0 0 1-5.76-3.84 18.53 18.53 0 0 1-3.84-5.76c-.928-2.176-1.392-4.512-1.392-7.008Zm7.2 0c0 1.568.272 3.04.816 4.416a12.282 12.282 0 0 0 2.352 3.6 11.394 11.394 0 0 0 3.504 2.4c1.344.576 2.8.864 4.368.864 1.504 0 2.896-.288 4.176-.864a10.285 10.285 0 0 0 3.408-2.4 11.998 11.998 0 0 0 2.256-3.6c.544-1.376.816-2.848.816-4.416 0-1.6-.288-3.088-.864-4.464a10.844 10.844 0 0 0-2.304-3.6 9.972 9.972 0 0 0-3.408-2.448c-1.312-.576-2.736-.864-4.272-.864s-2.96.288-4.272.864a10.476 10.476 0 0 0-3.456 2.448 10.844 10.844 0 0 0-2.304 3.6c-.544 1.376-.816 2.864-.816 4.464ZM143.013 37V.232h.048l19.632 27.84-2.976-.672L179.301.232h.096V37h-6.96V15.928l.432 3.6-11.952 16.992h-.096l-12.288-16.992 1.2-3.312V37h-6.72Zm41.532 0L200.481.28h.384L216.801 37h-8.064l-10.176-25.824 5.04-3.456L191.409 37h-6.864Zm10.896-12.768h10.608l2.448 5.856h-15.216l2.16-5.856Zm21.912-4.848c0-2.432.464-4.736 1.392-6.912a18.53 18.53 0 0 1 3.84-5.76 18.404 18.404 0 0 1 5.76-3.984c2.176-.96 4.512-1.44 7.008-1.44 2.464 0 4.784.48 6.96 1.44a18.404 18.404 0 0 1 5.76 3.984 17.75 17.75 0 0 1 3.936 5.76c.96 2.176 1.44 4.48 1.44 6.912 0 2.496-.48 4.832-1.44 7.008a17.75 17.75 0 0 1-3.936 5.76 18.53 18.53 0 0 1-5.76 3.84c-2.176.928-4.496 1.392-6.96 1.392-2.496 0-4.832-.464-7.008-1.392a18.53 18.53 0 0 1-5.76-3.84 18.53 18.53 0 0 1-3.84-5.76c-.928-2.176-1.392-4.512-1.392-7.008Zm7.2 0c0 1.568.272 3.04.816 4.416a12.282 12.282 0 0 0 2.352 3.6 11.394 11.394 0 0 0 3.504 2.4c1.344.576 2.8.864 4.368.864 1.504 0 2.896-.288 4.176-.864a10.285 10.285 0 0 0 3.408-2.4 11.998 11.998 0 0 0 2.256-3.6c.544-1.376.816-2.848.816-4.416 0-1.6-.288-3.088-.864-4.464a10.844 10.844 0 0 0-2.304-3.6 9.972 9.972 0 0 0-3.408-2.448c-1.312-.576-2.736-.864-4.272-.864s-2.96.288-4.272.864a10.476 10.476 0 0 0-3.456 2.448 10.844 10.844 0 0 0-2.304 3.6c-.544 1.376-.816 2.864-.816 4.464ZM292.02 38.44l-26.784-24.192L267.3 15.4l.144 21.6h-7.056V.28h.288l26.208 24.096-1.536-.672-.144-22.032h7.008V38.44h-.192Z"/>
</symbol>
<symbol id="pinterest" viewBox="0 0 62 64"><path d="M62 32c0 17.125-13.875 31-31 31-3.2 0-6.275-.487-9.175-1.388 1.262-2.062 3.15-5.437 3.85-8.125.375-1.45 1.925-7.375 1.925-7.375 1.012 1.925 3.962 3.563 7.1 3.563 9.35 0 16.087-8.6 16.087-19.287 0-10.238-8.362-17.9-19.112-17.9-13.375 0-20.488 8.974-20.488 18.762 0 4.55 2.426 10.212 6.288 12.013.587.275.9.15 1.037-.413.1-.425.625-2.538.863-3.513.075-.312.038-.587-.212-.887-1.263-1.563-2.288-4.413-2.288-7.075 0-6.837 5.175-13.45 14-13.45 7.612 0 12.95 5.188 12.95 12.613 0 8.387-4.238 14.2-9.75 14.2-3.038 0-5.325-2.513-4.588-5.6.876-3.688 2.563-7.663 2.563-10.325 0-2.375-1.275-4.363-3.925-4.363-3.113 0-5.613 3.213-5.613 7.525 0 2.75.925 4.6.925 4.6s-3.062 12.975-3.625 15.4c-.625 2.675-.375 6.45-.112 8.9C8.175 56.362 0 45.138 0 32 0 14.875 13.875 1 31 1s31 13.875 31 31Z"/>
</symbol>
<symbol id="quote-left" viewBox="0 0 64 64"><path d="M58 32H48v-8c0-4.413 3.587-8 8-8h1c1.663 0 3-1.338 3-3V7c0-1.662-1.337-3-3-3h-1c-11.05 0-20 8.95-20 20v30c0 3.313 2.688 6 6 6h16c3.313 0 6-2.688 6-6V38c0-3.313-2.688-6-6-6Zm-36 0H12v-8c0-4.413 3.588-8 8-8h1c1.663 0 3-1.338 3-3V7c0-1.662-1.337-3-3-3h-1C8.95 4 0 12.95 0 24v30c0 3.313 2.688 6 6 6h16c3.313 0 6-2.688 6-6V38c0-3.313-2.688-6-6-6Z"/>
</symbol>
<symbol id="search" viewBox="0 0 64 64"><g clip-path="url(#a)"><path d="M63.13 55.332 50.666 42.871a2.998 2.998 0 0 0-2.125-.875h-2.038a25.867 25.867 0 0 0 5.5-15.999C52.004 11.637 40.366 0 26.003 0 11.638 0 0 11.636 0 25.997 0 40.36 11.638 51.995 26.002 51.995c6.038 0 11.588-2.05 16.001-5.5v2.038a3 3 0 0 0 .875 2.125l12.464 12.46a2.988 2.988 0 0 0 4.237 0l3.538-3.536a3.013 3.013 0 0 0 .013-4.25ZM26.002 41.996C17.164 41.996 10 34.846 10 25.997 10 17.161 17.15 10 26 10c8.839 0 16.002 7.15 16.002 15.998 0 8.837-7.15 15.999-16.001 15.999Z"/></g><defs><clipPath id="a"><path d="M0 0h64v64H0z"/></clipPath></defs>
</symbol>
<symbol id="thumbs-up" viewBox="0 0 64 64"><path d="M58.284 35.836C59.38 33.98 60 32 60 29.606c0-5.502-4.652-10.697-10.727-10.697h-4.56c.614-1.601 1.106-3.516 1.106-5.818C45.819 3.992 41.107 0 33.91 0c-7.7 0-7.262 11.867-8.97 13.575-2.843 2.843-6.202 8.306-8.595 10.425H4a4 4 0 0 0-4 4v30a4 4 0 0 0 4 4h8a4.002 4.002 0 0 0 3.872-2.994C21.436 59.131 25.255 64 38.097 64l2.778.001c9.64 0 13.998-4.928 14.117-11.916 1.665-2.303 2.538-5.39 2.168-8.374a11.609 11.609 0 0 0 1.124-7.874Zm-7.719 6.729c1.57 2.641.157 6.176-1.742 7.196C49.785 55.86 46.62 58 42.182 58h-4.728C28.5 57.999 22.701 53.27 16 53.27V30h1.365c3.545 0 8.498-8.861 11.818-12.183C32.727 14.273 31.546 8.364 33.91 6c5.909 0 5.909 4.123 5.909 7.091 0 4.897-3.545 7.09-3.545 11.818h12.998c2.64 0 4.717 2.364 4.728 4.727.011 2.363-1.602 4.726-2.784 4.726 1.686 1.82 2.047 5.655-.651 8.203ZM11 54a3 3 0 1 1-6 0 3 3 0 0 1 6 0Z"/>
</symbol>
<symbol id="twitter" viewBox="0 0 64 64"><path d="M57.421 18.965c.04.568.04 1.137.04 1.705 0 17.34-13.197 37.32-37.319 37.32-7.431 0-14.335-2.153-20.142-5.888a27.3 27.3 0 0 0 3.167.162 26.269 26.269 0 0 0 16.285-5.604c-5.767-.122-10.6-3.898-12.264-9.096.812.121 1.624.203 2.477.203 1.178 0 2.355-.163 3.452-.447-6.01-1.218-10.518-6.498-10.518-12.873v-.163a13.211 13.211 0 0 0 5.929 1.665A13.108 13.108 0 0 1 2.68 15.025c0-2.436.65-4.67 1.787-6.619a37.284 37.284 0 0 0 27.046 13.726 14.807 14.807 0 0 1-.325-3.005c0-7.228 5.847-13.117 13.116-13.117 3.777 0 7.188 1.584 9.584 4.142a25.825 25.825 0 0 0 8.325-3.167 13.082 13.082 0 0 1-5.767 7.228c2.64-.284 5.199-1.015 7.554-2.03a28.194 28.194 0 0 1-6.579 6.782Z"/>
</symbol>
<symbol id="youtube" viewBox="0 0 72 64"><path d="M68.707 15.51a8.578 8.578 0 0 0-6.036-6.074C57.347 8 36 8 36 8S14.652 8 9.329 9.436a8.578 8.578 0 0 0-6.036 6.074c-1.426 5.36-1.426 16.538-1.426 16.538s0 11.18 1.426 16.539c.785 2.956 3.098 5.187 6.036 5.977C14.652 56 35.999 56 35.999 56s21.348 0 26.672-1.436c2.937-.79 5.25-3.021 6.036-5.977 1.426-5.359 1.426-16.539 1.426-16.539s0-11.18-1.426-16.538ZM29.018 42.2V21.9L46.86 32.05 29.018 42.2Z"/>
</symbol></svg>